HIERARCHY
ROOT Hips
{
  OFFSET -125.086 92.215 135.881
  CHANNELS 6 Xposition Yposition Zposition Zrotation Xrotation Yrotation
  JOINT LeftUpLeg
  {
    OFFSET 8.64259 1.95398 -2.38835
    CHANNELS 3 Zrotation Xrotation Yrotation
    JOINT LeftLeg
    {
      OFFSET 43.7702 0 0
      CHANNELS 3 Zrotation Xrotation Yrotation
      JOINT LeftFoot
      {
        OFFSET 40.6238 0 0
        CHANNELS 3 Zrotation Xrotation Yrotation
        JOINT LeftToeBase
        {
          OFFSET 12.7242 0 0
          CHANNELS 3 Zrotation Xrotation Yrotation
          End Site
          {
            OFFSET 0 0 0
          }
        }
      }
    }
  }
  JOINT RightUpLeg
  {
    OFFSET -8.2249 1.95398 -2.59336
    CHANNELS 3 Zrotation Xrotation Yrotation
    JOINT RightLeg
    {
      OFFSET 43.5653 0 0
      CHANNELS 3 Zrotation Xrotation Yrotation
      JOINT RightFoot
      {
        OFFSET 40.6238 0 0
        CHANNELS 3 Zrotation Xrotation Yrotation
        JOINT RightToeBase
        {
          OFFSET 12.7242 0 0
          CHANNELS 3 Zrotation Xrotation Yrotation
          End Site
          {
            OFFSET 0 0 0
          }
        }
      }
    }
  }
  JOINT Spine
  {
    OFFSET 0.165834 0.87714 6.61349
    CHANNELS 3 Zrotation Xrotation Yrotation
    JOINT Spine1
    {
      OFFSET 7.38963 1.71661e-005 0
      CHANNELS 3 Zrotation Xrotation Yrotation
      JOINT Spine2
      {
        OFFSET 11.9445 1.14441e-005 0
        CHANNELS 3 Zrotation Xrotation Yrotation
        JOINT Spine3
        {
          OFFSET 14.7254 4.19617e-005 0
          CHANNELS 3 Zrotation Xrotation Yrotation
          JOINT Spine4
          {
            OFFSET 10.9679 0 0
            CHANNELS 3 Zrotation Xrotation Yrotation
            JOINT RightShoulder
            {
              OFFSET 2.46616 -1.6653 3.69651
              CHANNELS 3 Zrotation Xrotation Yrotation
              JOINT RightArm
              {
                OFFSET 13.0012 0 0
                CHANNELS 3 Zrotation Xrotation Yrotation
                JOINT RightForeArm
                {
                  OFFSET 28.7848 1.52588e-005 0
                  CHANNELS 3 Zrotation Xrotation Yrotation
                  JOINT RightHand
                  {
                    OFFSET 26.5688 1.52588e-005 0
                    CHANNELS 3 Zrotation Xrotation Yrotation
                    End Site
                    {
                      OFFSET 0 0 0
                    }
                  }
                }
              }
            }
            JOINT LeftShoulder
            {
              OFFSET 2.38034 -1.29275 -3.7523
              CHANNELS 3 Zrotation Xrotation Yrotation
              JOINT LeftArm
              {
                OFFSET 16.3182 6.10352e-005 0
                CHANNELS 3 Zrotation Xrotation Yrotation
                JOINT LeftForeArm
                {
                  OFFSET 27.0901 0 0
                  CHANNELS 3 Zrotation Xrotation Yrotation
                  JOINT LeftHand
                  {
                    OFFSET 24.5451 1.52588e-005 0
                    CHANNELS 3 Zrotation Xrotation Yrotation
                    End Site
                    {
                      OFFSET 0 0 0
                    }
                  }
                }
              }
            }
            JOINT Neck
            {
              OFFSET 5.0226 -0.0266342 0
              CHANNELS 3 Zrotation Xrotation Yrotation
              JOINT Head
              {
                OFFSET 6.69363 2.86102e-005 0
                CHANNELS 3 Zrotation Xrotation Yrotation
                End Site
                {
                  OFFSET 0 0 0
                }
              }
            }
          }
        }
      }
    }
  }
}
MOTION
Frames:	13
Frame Time:	0.0416667
-186.212 97.0463 -194.057 94.8377 -42.1338 93.0839 -174.274 -1.10237 89.2915 -10.1658 -1.05944 1.11298 63.4415 4.75761 -2.25176 30.5766 -0.463968 3.09401 174.395 2.73963 88.2757 -17.4728 1.56072 0.386357 64.4637 -1.89061 6.80016 31.6957 -0.325398 -1.79776 -0.435598 7.33628 -90.0574 12.2016 -0.892851 -0.0150552 0.530959 -0.892679 0.0242642 -22.0065 -0.847057 -0.282715 -1.99383 -0.847081 -0.28273 108.628 -50.6362 -72.1745 30.8542 -2.29381 -12.9867 2.98009 -23.0156 -10.3006 -13.7766 -0.670007 0.476905 -74.55 -45.798 102.131 -46.1405 -5.35605 -23.935 4.09235 58.5966 0.0101037 -0.808195 -0.139175 -7.93225 10.0828 -8.43165 11.6037 -20.9578 -8.44139 -16.4533 
-186.18 97.0516 -194.098 94.3646 -42.0718 92.7181 -174.514 -0.78216 89.0974 -10.1144 -0.985755 1.20086 63.5143 4.87624 -1.75768 30.115 -0.391181 2.65448 174.474 2.84045 88.2125 -17.03 2.28728 0.2865 64.9686 -1.87944 8.00517 30.3613 -0.0271328 -2.61166 -0.445701 7.30456 -90.0545 12.2651 -0.911603 -0.00643629 0.594433 -0.911001 0.0336947 -21.9431 -0.867507 -0.28013 -1.93046 -0.86752 -0.280136 108.716 -50.7467 -72.0523 31.0344 -1.63001 -13.7108 3.12844 -23.8041 -8.95954 -14.2414 -0.396648 -2.00707 -74.476 -46.3108 102.216 -45.5347 -5.51759 -23.8868 3.77157 58.6438 0.0101174 0.715108 -0.186389 -8.16168 9.96782 -8.36373 12.1789 -21.0771 -8.33234 -17.4011 
-186.129 97.0088 -194.08 94.3034 -42.1639 92.4657 -174.62 -0.748694 88.8861 -10.1967 -0.991527 1.13771 63.4578 4.81064 -1.65378 30.3791 -0.430624 2.87981 174.413 3.14888 87.9973 -17.5783 2.15428 0.229796 65.2361 -1.89958 8.01604 30.4333 -0.0600124 -2.3684 -0.444026 7.30859 -90.0268 12.2573 -0.895156 0.0469043 0.586627 -0.892234 0.0862484 -21.9509 -0.867858 -0.224313 -1.93826 -0.867864 -0.22433 108.778 -51.0878 -72.0008 30.5981 -1.7669 -13.6137 3.21684 -23.3384 -9.42769 -14.5958 -0.543492 -0.883302 -74.5481 -46.4216 102.095 -45.4435 -5.73536 -23.7949 3.77091 58.6865 0.0101298 -4.17957 -0.0174497 -9.15803 9.78527 -8.33923 12.0338 -20.7939 -8.28124 -17.5262 
-185.977 97.0356 -194.047 94.6108 -42.0287 92.5694 -174.763 -1.37614 88.7031 -9.54293 -1.08755 1.22429 63.1821 4.77682 -1.78588 30.5313 -0.450554 2.98756 174.284 2.75403 87.833 -17.5175 2.02142 0.210131 65.5129 -2.04861 7.83741 29.8006 0.0773245 -2.63967 -0.474518 7.35483 -90.0095 12.165 -0.947661 0.0861679 0.494362 -0.94294 0.127786 -22.0435 -0.929768 -0.202651 -2.03084 -0.92973 -0.202653 108.646 -50.934 -72.1842 30.775 -2.01337 -13.5417 3.29585 -22.7209 -9.51977 -14.5501 -0.512686 -1.12105 -74.5228 -46.2934 102.143 -45.3716 -5.5452 -23.7011 3.57358 59.0086 0.0102244 -3.69819 -0.0316984 -9.47819 9.48139 -8.34193 11.8397 -19.9747 -8.34327 -17.4821 
-185.913 97.0662 -194.064 94.3085 -42.1005 92.5197 -174.625 -1.22287 88.8453 -9.46787 -1.19559 1.14963 63.2868 4.88685 -1.71339 30.3465 -0.404795 2.64542 174.379 2.76831 87.9492 -17.0557 2.3205 0.20913 65.0789 -1.92417 8.32134 30.4672 -0.0315217 -2.77846 -0.45633 7.36202 -90.0184 12.1505 -0.915722 0.064782 0.479833 -0.911962 0.105017 -22.0578 -0.892857 -0.213455 -2.04517 -0.892845 -0.213446 108.732 -50.8644 -72.0439 31.0043 -1.91314 -13.6316 3.24236 -22.8118 -9.52245 -14.9032 -0.55346 -0.894136 -74.7199 -45.9286 101.852 -45.6938 -5.55696 -23.6523 3.7767 58.6916 0.0101313 -3.86043 -0.0280653 -9.17706 10.0027 -8.53781 11.3581 -20.3151 -8.51882 -16.8295 
-185.789 97.0696 -194.067 94.2251 -41.8419 92.5919 -174.645 -1.31234 88.8414 -9.18138 0.145256 1.19514 62.7945 5.09681 -0.279072 31.6824 -0.462063 2.37518 174.176 2.57956 87.9285 -16.7566 2.2117 0.449259 65.1211 -2.11317 8.14349 30.137 0.0444185 -2.97241 -0.475809 7.3837 -90.0356 12.1071 -0.962584 0.0352861 0.43646 -0.960106 0.077612 -22.1014 -0.928697 -0.255666 -2.08877 -0.928697 -0.255682 109.106 -51.1036 -71.4999 30.56 -2.22004 -13.8034 3.35425 -22.9417 -9.8511 -14.6127 -0.686231 0.274547 -74.8447 -45.6952 101.666 -45.9157 -5.52122 -23.7384 3.86045 58.3262 0.0100263 -4.44828 -0.00633962 -9.00593 10.2536 -8.63016 11.3653 -20.7863 -8.53952 -17.0017 
-185.631 97.0911 -193.996 94.5205 -41.8096 92.5454 -174.763 -1.51378 88.545 -9.48166 0.604037 1.16831 62.7533 5.33766 0.213501 32.5374 -0.565881 2.94067 174.013 2.47248 87.6229 -17.2564 2.35394 0.377412 65.6139 -2.18398 8.49363 29.5264 0.138426 -2.7659 -0.488557 7.45687 -90.0232 11.9609 -0.982206 0.0600891 0.290283 -0.978617 0.10326 -22.2477 -0.954859 -0.237902 -2.23508 -0.954867 -0.237919 108.884 -50.971 -71.8239 30.5435 -2.37065 -13.615 3.16758 -22.8222 -10.3752 -14.2015 -0.6722 0.319235 -74.5432 -46.1628 102.119 -45.6369 -5.51744 -23.9898 3.79331 58.2764 0.0100122 -3.64671 -0.0369671 -8.92067 10.9892 -8.35749 11.7739 -21.2778 -8.39846 -16.7534 
-185.285 97.0523 -193.892 93.5242 -41.8008 91.8692 -174.791 -1.1974 88.4584 -9.11249 0.658131 1.04327 63.032 5.44832 0.213672 32.1972 -0.532287 2.78955 174.169 2.97814 87.6143 -17.1678 2.59598 0.256707 65.5576 -2.03189 8.86977 30.0729 0.0975291 -3.43503 -0.480677 7.41923 -90.0288 12.036 -0.969171 0.0483909 0.36545 -0.966076 0.0909998 -22.1725 -0.938917 -0.245148 -2.15983 -0.938883 -0.245138 108.783 -50.7783 -71.9543 30.7169 -2.31262 -13.4369 3.08093 -23.0505 -10.4242 -14.0502 -0.660339 0.280916 -74.7426 -46.0373 101.809 -45.8078 -5.39367 -23.8596 3.71621 58.2552 0.0100063 -4.14791 -0.019217 -8.9051 10.7514 -8.47178 11.6658 -20.3731 -8.63645 -16.4668 
-184.863 97.0164 -193.807 92.5177 -42.018 90.987 -175.107 -1.04599 87.9735 -8.46434 0.490528 0.976427 63.1426 5.60123 0.812537 31.8832 -0.51766 2.84031 174.014 3.61084 87.2726 -17.3045 2.41257 0.304582 65.9875 -2.19883 8.89685 29.721 0.145998 -3.24229 -0.466674 7.36214 -90.0352 12.1501 -0.944173 0.0342822 0.479513 -0.941794 0.0757987 -22.0583 -0.910852 -0.251099 -2.04561 -0.910851 -0.251108 108.815 -50.8049 -71.9081 30.4392 -2.20945 -13.2091 3.14692 -22.8171 -10.312 -14.4721 -0.666445 0.166157 -74.4647 -46.7972 102.204 -45.5624 -5.84258 -23.8377 3.81161 59.048 0.0102361 -4.36755 -0.00626528 -9.20612 10.9796 -8.12293 12.4967 -20.4769 -8.40177 -17.1074 
-184.49 96.9616 -193.709 92.4484 -41.9913 91.2354 -174.971 -0.773104 88.1729 -9.39032 0.751744 1.00428 63.5381 5.72333 0.914281 33.0513 -0.598387 2.97138 174.227 3.29945 87.5113 -17.1024 3.21305 0.176476 66.1212 -2.22161 9.66313 30.575 0.0183431 -3.61455 -0.466057 7.45276 -90.0601 11.9686 -0.954925 -0.016316 0.298063 -0.954714 0.0257196 -22.2397 -0.905872 -0.30258 -2.22705 -0.905864 -0.30258 108.538 -50.6669 -72.318 30.7208 -2.09193 -13.3504 3.29843 -22.6745 -9.98877 -14.6187 -0.716949 0.52107 -74.4138 -46.583 102.297 -45.4761 -5.40163 -23.8755 3.44236 58.2034 0.0243441 -4.2507 -0.00746815 -9.40712 12.0821 -7.46737 12.2642 -20.728 -7.86073 -16.5103 
-183.95 96.8516 -193.626 91.3591 -41.5624 90.2506 -175.536 -0.129079 87.4851 -9.57003 1.70325 1.04897 63.5075 6.3324 2.78431 35.2725 -0.76974 3.6892 173.843 3.96243 87.0295 -17.4682 3.618 0.43287 66.7584 -2.50063 9.71876 30.4017 0.032486 -3.39642 -0.47895 7.48991 -90.0379 11.8946 -0.970185 0.0286466 0.223965 -0.967995 0.0713233 -22.3139 -0.933945 -0.264285 -2.30129 -0.933941 -0.264287 108.634 -50.7106 -72.1751 30.7072 -1.99201 -13.5223 3.12633 -23.3415 -10.0935 -14.5197 -0.700681 0.425166 -74.5448 -46.6188 102.087 -45.2942 -4.98734 -23.9574 3.33132 57.0961 -0.170472 -3.57863 -0.0432091 -8.87748 13.3477 -7.03921 11.3537 -20.354 -7.6541 -14.6954 
-183.227 96.7633 -193.447 91.2059 -41.171 90.3751 -175.676 0.0214606 87.3547 -10.5141 3.20449 1.21475 63.7964 6.86714 4.47885 37.5845 -0.915157 4.24755 173.836 4.04145 86.9724 -18.3962 4.76212 0.394783 67.2212 -2.23436 11.0981 30.6387 0.0515908 -4.17592 -0.463669 7.61514 -90.0601 11.6439 -0.950381 -0.020939 -0.0267374 -0.95042 0.0209103 -22.5645 -0.900163 -0.305621 -2.55183 -0.900157 -0.30563 108.284 -50.5091 -72.6908 30.971 -1.89791 -13.2354 2.84383 -23.6049 -10.5181 -14.8067 -0.709291 0.381006 -74.2507 -46.685 102.549 -44.952 -4.64422 -23.9586 4.30727 56.6562 -1.8958 -3.48232 -0.04002 -9.57528 14.3769 -5.87757 10.0618 -19.7419 -6.65489 -12.4846 
-182.234 96.5804 -193.068 90.2143 -40.8272 89.6564 -176.025 0.386949 86.9947 -11.0902 3.70487 1.31434 64.3965 7.38198 4.71205 38.4647 -0.981083 5.04451 173.797 4.34846 86.6184 -19.1375 7.39768 0.20987 68.7138 -1.99146 14.9367 29.6434 0.434165 -6.21684 -0.364714 7.68776 -90.0317 11.4986 -0.740402 0.0124303 -0.172169 -0.739127 0.0449947 -22.7089 -0.709899 -0.210681 -2.69627 -0.709915 -0.210679 108.184 -50.5904 -72.8548 31.1269 -1.52712 -12.8614 2.87594 -23.5534 -10.1122 -15.8537 -0.719152 0.0785765 -74.4255 -46.3363 102.295 -44.5795 -4.04296 -23.6013 5.93533 55.8462 -4.99405 -4.04441 -0.0180911 -9.33092 15.0165 -5.14257 8.32505 -18.816 -5.91758 -10.2246 
